<?xml version="1.0" encoding="UTF-8"?>
<svg id="_レイヤー_2" data-name="レイヤー 2" xmlns="http://www.w3.org/2000/svg" viewBox="0 0 3123.01 1793.09">
  <defs>
    <style>
      .cls-1 {
        fill: #fff;
      }
    </style>
  </defs>
  <g id="_レイヤー_1-2" data-name="レイヤー 1">
    <path class="cls-1" d="M2587.83,104.42c-80.48,6.48-166.16,18.44-255.53,35.21,216.36,42.5,212.28,206.35-24.79,424.88C2175.53,233.8,1852.55,0,1474.74,0c-495.15,0-896.54,401.4-896.54,896.54,0,117.13,22.7,228.9,63.55,331.47-2.13-21.13-3.25-42.56-3.25-64.25,0-349.2,283.08-632.27,632.27-632.27,249.96,0,465.4,145.42,568.03,355.94-379.66,207.37-839.42,367.1-1173.35,393.99-283.24,22.81-409.37-55.32-370.25-193.14-467.8,410.23-373.61,694.51,239.78,645.1,382.9-30.84,882.55-184.86,1344.43-398.15-65.88,233.79-263.07,412.34-506.92,451.88,33.58,3.81,67.65,5.97,102.25,5.97,429.36,0,788.03-301.9,875.81-704.94,142.08-84.6,273.5-173.41,387.7-264.04,566.88-449.83,499.53-772.04-150.43-719.69Z"/>
  </g>
</svg>