<?xml version="1.0" encoding="UTF-8"?>
<svg id="_レイヤー_2" data-name="レイヤー 2" xmlns="http://www.w3.org/2000/svg" viewBox="0 0 175.21 100.6">
  <g id="_レイヤー_1-2" data-name="レイヤー 1">
    <path d="M145.19,5.86c-4.52.36-9.32,1.03-14.34,1.98,12.14,2.38,11.91,11.58-1.39,23.84C122.05,13.12,103.93,0,82.74,0c-27.78,0-50.3,22.52-50.3,50.3,0,6.57,1.27,12.84,3.57,18.6-.12-1.19-.18-2.39-.18-3.6,0-19.59,15.88-35.47,35.47-35.47,14.02,0,26.11,8.16,31.87,19.97-21.3,11.63-47.09,20.6-65.83,22.1-15.89,1.28-22.97-3.1-20.77-10.84-26.25,23.02-20.96,38.96,13.45,36.19,21.48-1.73,49.51-10.37,75.43-22.34-3.7,13.12-14.76,23.13-28.44,25.35,1.88.21,3.8.34,5.74.34,24.09,0,44.21-16.94,49.14-39.55,7.97-4.75,15.34-9.73,21.75-14.81,31.8-25.24,28.03-43.31-8.44-40.38Z"/>
  </g>
</svg>