<?xml version="1.0" encoding="UTF-8"?>
<svg xmlns="http://www.w3.org/2000/svg" viewBox="0 0 1721.89 988.63">
  <style>
    .logo-path { 
      fill: #000; 
    }
    @media (prefers-color-scheme: dark) {
      .logo-path { 
        fill: #fff; 
      }
    }
  </style>
  <path class="logo-path" d="M1426.82,45.24c-44.38,3.57-91.61,10.17-140.89,19.41,119.29,23.43,117.04,113.77-13.67,234.26-117.03,94.82-150.53,124.61-258.42,178.04-209.33,114.33-462.82,202.4-646.93,217.23-156.17,12.58-225.71-30.5-204.14-106.49-257.93,226.19-205.99,382.92,132.21,355.68,211.11-17,486.6-101.93,741.26-219.52,69.65-30.67,176.59-89.9,259.76-136.24,78.33-46.65,150.8-95.61,213.76-145.58,312.55-248.01,275.42-425.67-82.94-396.81Z"/>
  <path class="logo-path" d="M1272.26,311.25C1199.49,128.91,1021.41,0,813.11,0c-273,0-494.32,221.31-494.32,494.32,0,64.58,12.51,126.21,35.04,182.76-1.18-11.65-1.79-23.46-1.79-35.42,0-192.53,156.08-348.61,348.61-348.61,137.82,0,256.6,80.18,313.19,196.25,28.86,73.05,43.02,170.14,22.39,246.9-36.32,128.9-145.04,227.35-279.49,249.15,18.51,2.1,37.3,3.29,56.37,3.29,236.73,0,434.48-166.45,482.88-388.67,22.95-85.52,9.68-195.4-23.73-288.71Z"/>
</svg>