<?xml version="1.0" encoding="UTF-8"?>
<svg id="_レイヤー_2" data-name="レイヤー 2" xmlns="http://www.w3.org/2000/svg" viewBox="0 0 891.73 804.25">
  <defs>
    <style>
      .cls-1 {
        stroke-dasharray: 11.42 11.42;
      }

      .cls-1, .cls-2, .cls-3, .cls-4, .cls-5, .cls-6, .cls-7, .cls-8, .cls-9, .cls-10, .cls-11, .cls-12, .cls-13, .cls-14, .cls-15 {
        fill: none;
        stroke: #fdfdfd;
        stroke-linecap: round;
        stroke-miterlimit: 10;
        stroke-width: .5px;
      }

      .cls-2 {
        stroke-dasharray: 12.11 12.11;
      }

      .cls-16 {
        font-family: SourceSerifRoman-Black, 'Source Serif Variable';
        font-size: 23.12px;
        font-variation-settings: 'wght' 900;
        font-weight: 800;
      }

      .cls-16, .cls-17 {
        fill: #fff;
      }

      .cls-16, .cls-18 {
        opacity: .34;
      }

      .cls-3 {
        stroke-dasharray: 12.55 12.55;
      }

      .cls-4 {
        stroke-dasharray: 12.55 12.55;
      }

      .cls-5 {
        stroke-dasharray: 11.96 11.96;
      }

      .cls-6 {
        stroke-dasharray: 11.78 11.78;
      }

      .cls-7 {
        stroke-dasharray: 12.06 12.06;
      }

      .cls-8 {
        stroke-dasharray: 11.87 11.87;
      }

      .cls-10 {
        stroke-dasharray: 12.66 12.66;
      }

      .cls-11 {
        stroke-dasharray: 13.21 13.21;
      }

      .cls-19 {
        letter-spacing: -.02em;
      }

      .cls-12 {
        stroke-dasharray: 12.24 12.24;
      }

      .cls-20 {
        letter-spacing: -.03em;
      }

      .cls-21 {
        letter-spacing: 0em;
      }

      .cls-13 {
        stroke-dasharray: 11.61 11.61;
      }

      .cls-14 {
        stroke-dasharray: 13.24 13.24;
      }

      .cls-15 {
        stroke-dasharray: 11.88 11.88;
      }

      .cls-22 {
        fill: #fdfdfd;
      }
    </style>
  </defs>
  <g id="_レイヤー_1-2" data-name="レイヤー 1">
    <text class="cls-16" transform="translate(383.01 796.92)"><tspan class="cls-19" x="0" y="0">D</tspan><tspan x="15.79" y="0">B </tspan><tspan class="cls-21" x="35.82" y="0">l</tspan><tspan class="cls-19" x="43.31" y="0">a</tspan><tspan class="cls-20" x="55.33" y="0">y</tspan><tspan x="67.2" y="0">er</tspan></text>
    <g class="cls-18">
      <path class="cls-17" d="M63.45,151.56v51.45c0,.15-2.76-.22-2.97,0-.31.33,3.65,6.68-1.48,7.9-8.32,1.98-10.99-2.82-3.46-6.91-12.37-5.15,1.03,15.82-4.45,15.82h-21.77c-5.81,0,8.07-20.96-4.45-15.82-.83,3.62,3.3,1.3,3.96,1.98,2.7,2.79-3.03,6.07-7.43,4.93-4.29-1.11-1.66-4.49-2.46-7.25-.31-1.05-1.99-.55-1.99-.66v-51.45h46.5ZM59.49,154.53H21.4c-.1,0-1.48,1.38-1.48,1.48v39.08h39.57v-40.56ZM48.61,215.87c-1.15-3.39-1.89-13.84-3.16-16.13-1.36-2.47-10.28-2.05-10.68-1.66-.65.62-2.43,15.48-2.98,17.8h16.82Z"/>
      <rect class="cls-17" x="23.87" y="177.28" width="15.83" height="14.84"/>
      <path class="cls-17" d="M56.52,179.26c.45.45.64,12.86,0,12.86h-13.85c-.64,0-.64-12.86,0-12.86,2.01,0,13.36-.49,13.85,0Z"/>
      <path class="cls-17" d="M34.76,165.41c.35.35.35,9.55,0,9.9-.39.39-10.51.39-10.89,0-.35-.35-.35-9.55,0-9.9.39-.39,10.51-.39,10.89,0Z"/>
      <path class="cls-17" d="M45.63,210.93c.47,4.06-8.34,1.11-10.87,1.97-.47-4.06,8.34-1.11,10.87-1.97Z"/>
      <path class="cls-17" d="M44.64,205.98c.72,3.89-6.64,1.24-8.89,1.97-.72-3.89,6.64-1.24,8.89-1.97Z"/>
    </g>
    <g class="cls-18">
      <path class="cls-17" d="M91.66,76.92c-1.7-1.44,1.88-3.15,2.06-4.41.72-4.85.71-32.14,1.92-33.29.29-.27,7.66-.31,7.93-.02,1.45,1.5.18,22.96.99,23.83,4.61,4.92,2.23-11.91,2.97-11.91h37.71v22.33c0,.53,1.54,2.11.99,3.47-6.74-1.35-52.5,1.76-54.58,0ZM123.42,55.08c-.28-.28-7.67-.28-7.95,0s-.28,7.67,0,7.95,7.67.28,7.95,0,.28-7.67,0-7.95ZM137.31,55.08c-.28-.28-7.67-.28-7.95,0s-.28,7.67,0,7.95,7.67.28,7.95,0,.28-7.67,0-7.95Z"/>
      <path class="cls-17" d="M97.62,34.24c-.47-.59.11-6.53.43-7.99,3.87-17.41,44.43-21.35,42.05-4.67-1.57,11.03-22.58,5.54-30.98,6.81-3.88.59-11.1,6.36-11.5,5.85ZM101.59,27.3c.44.49,4.6-1.88,6.42-2,5.96-.41,23.93,1.5,27.37-1.41,7.07-5.98-7.33-11-12.24-10.3-2.73.39-2.59,2.66-3.27,2.81-.78.17-3.15-1.54-4.79-1-2.56.84-17.21,7.79-13.49,11.9Z"/>
      <path class="cls-17" d="M146.93,33.96c-3.4,4.54-22.67,1.18-28.91,2.34-3.92.73-11.53,9.61-8.49-2.54.93-3.72,5.06-3.97,3.48.5,5.72-4.27,27.97-.08,31.29-2.44,3.81-2.71-3.74-7.71-2.02-9.47,2.25-2.32,9.27,5.46,4.65,11.61Z"/>
      <path class="cls-17" d="M113.5,42.18c3.18,3.22-3.19,9.56-6.52,5.03-4.29-5.84,5.6-5.95,6.52-5.03Z"/>
    </g>
    <g class="cls-18">
      <path class="cls-17" d="M300.26,68.13c.39-.39,10-.17,10.93.45,3.29,2.2-4.07,6.77,3.46,6.52,7.52-.25,3.22-5.74,4.41-6.98.41-.43,11.88-.59,11.88,0v25.73h-30.68c.68-3.44-.91-24.82,0-25.73Z"/>
      <path class="cls-17" d="M361.62,97.82c2.62,2.41-3.38,3.34-3.7,4.4-1.32,4.33,9.56,8.24-.7,9.51-5.47.68-54.98,1-56.96-1.05-3-3.1,2.92-4.19,3.04-4.5,2.27-5.76-4.84-2.86-3.04-8.36,7.48,1.59,59.1-2.08,61.36,0ZM326.98,101.78c-.62-.64-15.27.48-17.81,0,.7,1.02.69,5.94.99,5.94h16.82c.3,0,.21-5.73,0-5.94ZM350.73,101.78c-.55-.57-13.59,0-15.83,0-.3,0-.3,5.94,0,5.94h15.83c.3,0,.21-5.73,0-5.94Z"/>
      <path class="cls-17" d="M333.91,72.09c.35-.35,9.56-.36,9.9,0,.69.71-2.98,9.25,7.34,5.96,1.46-.46.02-5.4.57-5.96.31-.32,8.91-.44,8.91,0v21.77h-26.72c.58-2.99-.77-21,0-21.77Z"/>
      <path class="cls-17" d="M300.26,47.35c.25-.24,6.69-.25,6.93,0,.68.68-2.98,9.25,7.34,5.96,1.45-.46.03-5.42.57-5.96.21-.21,5.94-.29,5.94,0v17.81h-20.78c.47-2.55-.63-17.19,0-17.81Z"/>
    </g>
    <g class="cls-18">
      <rect class="cls-17" x="464.21" width="40.91" height="17.53"/>
      <path class="cls-17" d="M505.12,19.87c.33.33.24,8.4-.51,9.42-1.14,1.56-36.1,1.85-38.48.93-3.36-1.31-1.53-7.47-1.92-10.35,5.14,1.1,39.47-1.45,40.91,0Z"/>
      <path class="cls-17" d="M498.11,33.9c2.33,2.31-7.78,32.39-21.03,16.94-2.04-2.38-7.78-14.9-5.85-16.94,4.42-4.68,4.54,15.26,10.51,15.19l-3.5-15.19c2.88.52,19.16-.7,19.87,0ZM485.25,52.58c.58-.56-2.39-3.25-3.51-2.31-.63.53,2.49,3.29,3.51,2.31Z"/>
      <path class="cls-17" d="M524.99,60.78c-.11.73.18,3.51,0,3.51h-80.65c-.18,0-.18-3.51,0-3.51h80.65Z"/>
      <path class="cls-17" d="M514.46,47.92c8.31,4.69-15.89,9.87-18.69,9.34,1.41-2.72,17.78-9.85,18.69-9.34Z"/>
      <path class="cls-17" d="M471.22,56.09c-2.28-.16-16.9-1.71-17.54-2.33-.33-.32.94-5.68,1.19-5.84.78-.47,15.24,5.66,16.35,8.17Z"/>
      <path class="cls-17" d="M467.13,43.27c.63.01,7.28,8.45,7.03,10.46-.76-.19-13.44-10.6-7.03-10.46Z"/>
      <path class="cls-17" d="M497.3,50.65c-.57.43-2.72,5.75-3.86,1.96,3.43-.02,6.54-9.36,8.75-9.34,6.97.07-4.16,6.82-4.9,7.38Z"/>
      <path class="cls-17" d="M485.25,52.58c-1.02.98-4.14-1.78-3.51-2.31,1.12-.94,4.09,1.75,3.51,2.31Z"/>
    </g>
    <g class="cls-18">
      <path class="cls-22" d="M569.03,149.32c-2-2,2.1-4.74,2.21-5.8.4-3.82.68-21.54.01-24.59-.53-2.46-5.48-2.91-2.81-6.95,1.11-1.68,35.48-14.46,37.49-14.55,2.62-.11,38.65,13.87,39.78,15.69,1.91,3.08-4.22,4.5-4.33,4.85-.49,1.58-.32,22.62,0,25.55.01.1.03.19.06.28.82,2.52-.78,5.12-3.43,5.05-18-.51-66.68,2.78-68.99.47ZM638.27,118.32c0-1.67-1.14-3.14-2.77-3.51-8.94-2.02-22.77-10.09-29.55-9.9-1.61.04-30.53,8.72-30.53,10.33v29.83c0,.21,4.26.21,4.26,0v-19.82c0-1.99,1.62-3.61,3.61-3.61h34.32c1.99,0,3.61,1.62,3.61,3.61v19.82c0,.16,3.08.12,3.19,0,.77-.82-1.07-12.07.63-12.81.41-.18,8.65-.3,8.97.02.51.51-.52,12.29,0,12.79.15.15,4.26.21,4.26,0v-26.75ZM616.96,124.82c-1.15-1.19-28.6,0-33.02,0-.21,0-.21,4.26,0,4.26h33.02c.21,0,.15-4.11,0-4.26Z"/>
      <path class="cls-22" d="M642.02,123.64c-.32.29-9.04,1.03-8.5-1.57,2.24-5.62,11.63-1.21,8.5,1.57Z"/>
    </g>
    <g class="cls-18">
      <path class="cls-22" d="M762.77,85.37c2.8-.78,4.55,0,6.92,1.23,1.28.66,20.78,17.49,21.57,18.65,4.39,6.45-2.28,12.21-9.44,8.98-1.29-.58-20.04-16.84-21.11-18.18-2.88-3.62-3.12-9.23,2.05-10.68ZM767.66,88.98c-2.44-3.74-8.81,1.89-4.67,4.93,2.48,1.82,6.82-1.63,4.67-4.93Z"/>
      <path class="cls-22" d="M804.88,118.64c-7.54,9.77-46.06,4.83-35.58-7.91,4.46-5.42,9.89,8.13,17.9,7.09,9.05-1.18,7.11-11.59,7.9-11.67,4.39-.45,14.54,6.32,9.78,12.49Z"/>
      <path class="cls-22" d="M796.55,66.04c-12.81-2.9-22.77-6.32-24.89,10.04l4.77-4.56c-.1,2.27.28,4.19,1.9,5.95,2.25,2.44,7.24,1.58,6.72,3.61-.16.63-7.9,7.78-9.09,7.79-2.47,0-6.44-7.22-11.01-5.5,4.8-16.46,12.19-33.03,31.6-17.32Z"/>
      <path class="cls-22" d="M782.88,68.08c4.81-1.21,27-2.46,25.96,5.51-.95,7.26-27.8,4.6-29.05,2.5-1.85-3.11-.78-7.02,3.09-8ZM783.82,69.8c-4.2.94-2.57,7.08,1.52,6.17,4.2-.94,2.57-7.08-1.52-6.17Z"/>
      <path class="cls-22" d="M810.75,77.18c.11.03.13,1.47.81,1.61,1.47.3,5.74-.29,6.06.02,6.32,6-17.3,3.71-8.64-1.39.81-.48.74-.51,1.76-.25Z"/>
      <path class="cls-22" d="M817.62,63.32c4.29,4.18-4.65,3.37-6.06,3.65-.3.06-2.89,4.38-4.44-.51-.9-2.83,9.64-3.98,10.5-3.14Z"/>
    </g>
    <g class="cls-18">
      <path class="cls-22" d="M891.73,252.49h-22.04c.56-4.82,4.59-8.83,5.82-13.38.21-.76,2.14-2.95-.33-3.21-2.58-.27-8.99,15.53-12.2,17.37-3.43,1.97-23.96,1.96-26.45-1.17-2.58-3.24,5.71-16.02,6.63-16.21,4.37-.88,1.1,7.35,1.5,7.81.36.4,10.35-.9,10.83-1.15,2.1-1.11,6.05-21.42,14.15-23.8,21.77-6.38,20.15,20.57,22.09,33.74Z"/>
      <path class="cls-22" d="M862.45,193.13c17.33-1.93,18.65,22.57,3.62,24.19-16.91,1.81-19.24-22.45-3.62-24.19Z"/>
      <path class="cls-22" d="M854.66,237.84c-3.7-.4-7.23-12.23-9.49-12.56-.84-.12-15.11,6.01-15.55,6.72-.36.58,9.91,11.64,4.51,11.68-.83,0-9.47-11.92-8.46-13.59.58-.95,20.16-8.15,21.3-7.77,1.31.43,9.42,12.82,7.69,15.52Z"/>
    </g>
  </g>
  <g id="_レイヤー_3" data-name="レイヤー 3">
    <g class="cls-18">
      <path class="cls-22" d="M437.84,401.61c2.15.7,3.52,2.08,4.21,4.23v34.63c-.82,2.13-2.16,3.63-4.5,4.04h-48.48c-1.9-.24-3.58-1.4-4.28-3.2.22-10.65-1.69-24.54-.4-34.98.3-2.41,2.02-4.02,4.21-4.72h49.24ZM438.6,435.27v-28.57c0-1.14-1.53-1.55-2.39-1.64-14.29-1.61-31.59,1.23-46.19,0-.8-.17-2.2.88-2.2,1.64v28.57h50.77ZM412.49,437.24c-2.63.64-2.04,5.33,1.25,4.72,3-.55,2.18-5.56-1.25-4.72Z"/>
      <path class="cls-22" d="M406.99,446.72c.05-.19.24-.46.43-.55.5-.23,9.95-.27,10.97-.12.36.05,1.05.17,1.05.67v4.91h8.72c.36,0,.82,3.72-.75,3.28l-28.74-.02c-1.09.01-.74-3.26-.39-3.26h8.72c.22-1.37-.29-3.67,0-4.91Z"/>
    </g>
    <g class="cls-18">
      <path class="cls-17" d="M492.54,402.92c-5.91-1.35-6.16-7.18-5.62-12.25.47-4.4,3.7-5.92,7.66-6.18,10.16-.67,21.19.38,31.43.17,2.56.62,4.56,2.38,5.21,4.98.15.61.11,2.23.2,2.32.39.39,10.03.01,10.94-.22,4.94-1.25,4.32-11.07,3.75-15.04-1.05-7.24-12.29-3.31-17.11-4.52-2.61,11.19-18.69,11.19-21.27,0-7.29,0-19.77,2.54-20.8-8-.67-6.86-1.59-18.9,7.25-20.43,1.85-.32,10.73.2,11.12-.19.09-.1.09-1.98.3-2.67.82-2.83,3.52-4.4,6.3-4.64,10.1-.88,21.49.66,31.73.03,8.43.57,8.71,16.77.61,18.23-9.54,1.71-23.54-.77-33.5-.02-2.53-.54-4.52-2.32-5.2-4.83-.17-.62-.15-2.2-.23-2.28-.38-.38-9.77-.11-10.67.04-1.61.26-3.22,1.73-3.72,3.27-.56,1.7-.59,11.3-.32,13.35.97,7.36,11.76,3.46,16.59,4.65,1.29-11.29,17.11-14.03,21.39-3.29.23.59.74,3.14.87,3.24.66.51,12.31-1.24,16.46,1.46,4.92,3.2,4.37,11.99,3.91,17.26-.34,3.87-3.12,7.31-6.99,8.07-1.95.38-11-.18-11.4.22-.09.09-.06,1.83-.23,2.44-.41,1.53-1.61,3.07-2.98,3.87l-2.57,1h-33.11ZM511.64,339.92c-.59.1-1.43.46-1.86.88-1.22,1.19-1.81,9.62,1.28,9.98,9.98-.35,21.84,1.23,31.67.22,1.16-.12,2.3-.39,2.94-1.47.84-1.43,1.37-9.58-1.97-9.55l-32.06-.06ZM517.11,362.31c-8.96,1.21-7.74,16.06,2.65,14.54,8.69-1.28,7.59-15.92-2.65-14.54ZM492.8,388.34c-3.25.65-3.43,10.47.34,10.86,9.85-.79,22.09,1.28,31.67.06.69-.09,1.53-.37,2.04-.85,1.33-1.27,1.95-9.74-1.31-10.07h-32.73Z"/>
    </g>
    <g class="cls-18">
      <path class="cls-17" d="M421.46,313.53c-.09-.16-2.19-.9-2.73-2.4-1.83-5.09,6.46-6.89,6.79-.96.56,9.88-.58,20.42-.01,30.37-1.55,8.02-11.55,8.82-16.39,3.12-.61-.72-2.84-4.18-2.11-4.93.46-.47,2.99-1.33,4.12-2.52,4-4.21,1.24-12,7.13-12.98.64-.11,4.96.4,2.68-1.05-1.93-1.23-5.87.01-7.4,1.55-3.29,3.29-.69,9.92-6.93,12.17-8.4,3.03-14.7-6.42-9.41-13.24.42-.54,2.89-2.41,2.58-2.75-.44-.48-3.71,2.35-4.13,2.42-.72.1-2.7-.84-3.37-1.25-4.8-2.94-5.79-10.34-1.75-14.34,2.07-2.05,1.26.22,2.56.48,1.64.33.16-1.71.05-2.08-1.47-5.03-.26-10.06,4.9-12.22.69-.29,3.17-.69,3.33-1.1.98-2.4-5.18-.56-5.48-.66-1.06-.36.76-5.88,1.25-6.79,6.31-11.69,23.79-2.13,17.97,9.72-3.57,7.27-10.37,3.52-13.91,8.02-1.12,1.43-2.53,5.52-1.11,6.93,1.55,1.56,1.31-2.82,1.44-3.38.99-4.05,7.48-3.28,10.66-4.83,3.41-1.66,5.05-6.1,7.46-6.81,4.5-1.33,7.48,3.87,4.63,7.65-1.86,2.47-4.62,1.5-6.61,3.85-2.4,2.84-1.73,7.59,1.88,8.99,1.02.39,2.79.55,1.91-1.01ZM409.98,310.33c-.18-.18-.51-.24-.76-.17-1.5.43-.51,2.43-.58,3.43-.17,2.31-.83,4.59-2.15,6.52-.56.83-4.22,3.7-2.35,4.25,2.01.59,5.35-3.99,5.98-5.64.68-1.78,1.23-7-.15-8.39Z"/>
      <path class="cls-17" d="M427.93,300.32c.09-.26.59-.54.9-.51l12.63.16c1.15-.29,4.53-5.15,5.84-5.63,2.05-.75,7.31.46,9.07-.19.55-.2,1.15-2.44,3.47-2.76,6.96-.97,7.48,9.17,1.15,9.42-3.26.13-4.03-2.62-4.64-2.8-.34-.1-6.47-.1-7,0-1.28.23-4.73,4.68-6.07,5.6-4.3-.46-10.58.77-14.65.05-.18-.03-.69-.08-.69-.31,0-.63-.13-2.62,0-3.02ZM461.66,295.05c-1.23-.94-2.88.57-1.97,1.87,1.01,1.44,3.49-.7,1.97-1.87Z"/>
      <path class="cls-17" d="M425.52,291.97c-.13.14-2.98-.8-3.72-.8-1.06,0-2.25.54-3.32.6v-3.32c0-2.37-2.36-6.37-3.92-8.15-1.31-1.49-2.76-1.12-2.18-3.58,1.28-5.42,13.14-6.26,13.14,3.48,0,1.51.41,11.34,0,11.77Z"/>
      <path class="cls-17" d="M427.93,316.81c.1-.28.46-.27.69-.31.92-.16,11.18-.14,11.83.05,1.16.34,4.62,5.34,6.07,5.6.54.1,6.68.11,7.01,0,.16-.05,1.1-1.79,2.34-2.33,7.71-3.34,9.46,10.11,1.14,8.94-2.37-.33-3.01-2.54-3.68-2.76-1.94-.63-6.8.56-8.86-.19-1.19-.44-4.61-5.14-5.63-5.44-.91-.27-5.96-.23-7.4-.26-.54-.01-3.52.67-3.52-.28,0-.59-.12-2.69,0-3.02ZM457.45,322.78c-1.53.43-.93,3.08.91,2.54,1.37-.4.89-3.04-.91-2.54Z"/>
      <path class="cls-17" d="M427.93,308.57c.08-.23.46-.32.69-.31h18.71c.85-.19,1.64-2.47,3.85-2.79,10.22-1.47,4.72,16.37-3.85,6.42-4.28-.21-8.6.19-12.87.15-.71,0-6.54-.13-6.54-.46,0-.59-.12-2.69,0-3.02ZM451.61,308.91c-1.03.32-1.02,2,0,2.32,2.44.76,2.44-3.09,0-2.32Z"/>
      <path class="cls-17" d="M427.93,283.63c.25-.67,12.51-.12,14.18-.3,1.69-2.39,4.05-3.7,6.92-2.29,6.9,3.38-1.77,14.11-6.93,6.12-3.84-.59-9.66.7-13.27,0-.26-.05-.9-.24-.9-.51,0-.59-.12-2.69,0-3.02ZM446.39,283.96c-1.44.31-1.19,2.66.34,2.58,1.84-.1,1.72-3.02-.34-2.58Z"/>
      <path class="cls-17" d="M427.93,333.51c.11-.34.58-.45.9-.51,3.43-.67,10.12.81,13.28.01,1.51-.38,1.83-3.92,6.27-2.45,7.81,2.6-.66,14.76-6.27,6.27-1.2-.22-14.18.41-14.18-.3,0-.63-.13-2.62,0-3.02ZM446.59,333.64c-1.63.27-1.51,2.95.54,2.58,1.47-.27,1.15-2.87-.54-2.58Z"/>
      <path class="cls-17" d="M445.03,291.57c.31.28-3.06,3.82-3.32,3.82h-13.48s-.3-.28-.3-.3v-3.22s.28-.3.3-.3h16.79Z"/>
      <path class="cls-17" d="M442.21,328.58h-13.98s-.3-.28-.3-.3v-3.22s.28-.3.3-.3h10.46c.32,0,3.51,3.07,3.52,3.82Z"/>
      <path class="cls-17" d="M427.93,341.75c.2-.54,11.35-.76,11.47-.2.04.21-2.35,3.45-2.56,3.52-.39.12-7.59.12-8.21,0-.18-.03-.69-.08-.69-.31,0-.59-.12-2.69,0-3.02Z"/>
      <path class="cls-17" d="M436.68,275.08c.26.07,2.89,3.48,2.71,3.62s-4.09.2-4.71.21c-.82,0-6.32.03-6.55-.2-.13-.13-.27-3.62.1-3.62,1.67,0,7.31-.33,8.45,0Z"/>
    </g>
  </g>
  <g id="_レイヤー_4" data-name="レイヤー 4">
    <g>
      <line class="cls-9" x1="63.45" y1="510.55" x2="69.03" y2="508.35"/>
      <line class="cls-13" x1="79.83" y1="504.09" x2="333.52" y2="403.99"/>
      <line class="cls-9" x1="338.91" y1="401.86" x2="344.5" y2="399.65"/>
    </g>
    <g>
      <line class="cls-9" x1="155.38" y1="604.91" x2="160.29" y2="601.46"/>
      <line class="cls-2" x1="170.21" y1="594.51" x2="343.74" y2="472.78"/>
      <line class="cls-9" x1="348.7" y1="469.3" x2="353.61" y2="465.85"/>
    </g>
    <g>
      <line class="cls-9" x1="328.96" y1="593.77" x2="332.04" y2="588.62"/>
      <line class="cls-1" x1="337.9" y1="578.81" x2="381.83" y2="505.25"/>
      <line class="cls-9" x1="384.76" y1="500.34" x2="387.83" y2="495.19"/>
    </g>
    <g>
      <line class="cls-9" x1="444.21" y1="607.89" x2="444.21" y2="601.89"/>
      <line class="cls-6" x1="444.21" y1="590.11" x2="444.21" y2="501.75"/>
      <line class="cls-9" x1="444.21" y1="495.86" x2="444.21" y2="489.86"/>
    </g>
    <g>
      <line class="cls-9" x1="566.72" y1="555.38" x2="565.02" y2="549.62"/>
      <line class="cls-14" x1="561.29" y1="536.92" x2="533.27" y2="441.67"/>
      <line class="cls-9" x1="531.4" y1="435.32" x2="529.71" y2="429.56"/>
    </g>
    <g>
      <line class="cls-9" x1="741.48" y1="611.14" x2="737.51" y2="606.63"/>
      <line class="cls-3" x1="729.23" y1="597.21" x2="584.24" y2="432.28"/>
      <line class="cls-9" x1="580.1" y1="427.57" x2="576.13" y2="423.06"/>
    </g>
    <g>
      <line class="cls-9" x1="785.67" y1="507.82" x2="780.56" y2="504.68"/>
      <line class="cls-8" x1="770.45" y1="498.45" x2="593.47" y2="389.54"/>
      <line class="cls-9" x1="588.42" y1="386.43" x2="583.31" y2="383.29"/>
    </g>
    <g>
      <line class="cls-9" x1="362.8" y1="272.74" x2="358.22" y2="268.86"/>
      <line class="cls-7" x1="349.02" y1="261.05" x2="169.61" y2="108.87"/>
      <line class="cls-9" x1="165.01" y1="104.97" x2="160.44" y2="101.09"/>
    </g>
    <g>
      <line class="cls-9" x1="403.62" y1="250.68" x2="400.72" y2="245.43"/>
      <line class="cls-10" x1="394.61" y1="234.34" x2="348.76" y2="151.19"/>
      <line class="cls-9" x1="345.7" y1="145.65" x2="342.8" y2="140.4"/>
    </g>
    <g>
      <line class="cls-9" x1="347.47" y1="305.38" x2="341.89" y2="303.18"/>
      <line class="cls-4" x1="330.22" y1="298.56" x2="102.62" y2="208.58"/>
      <line class="cls-9" x1="96.78" y1="206.28" x2="91.2" y2="204.07"/>
    </g>
    <g>
      <line class="cls-9" x1="479.56" y1="250.68" x2="479.66" y2="244.68"/>
      <line class="cls-15" x1="479.86" y1="232.8" x2="482.15" y2="96.15"/>
      <line class="cls-9" x1="482.25" y1="90.2" x2="482.35" y2="84.21"/>
    </g>
    <g>
      <line class="cls-9" x1="535.7" y1="293.48" x2="538.23" y2="288.04"/>
      <line class="cls-11" x1="543.8" y1="276.07" x2="585.61" y2="186.24"/>
      <line class="cls-9" x1="588.4" y1="180.25" x2="590.93" y2="174.81"/>
    </g>
    <g>
      <line class="cls-9" x1="572.38" y1="295.54" x2="576.92" y2="291.61"/>
      <line class="cls-12" x1="586.17" y1="283.6" x2="729.6" y2="159.34"/>
      <line class="cls-9" x1="734.23" y1="155.34" x2="738.76" y2="151.41"/>
    </g>
    <g>
      <line class="cls-9" x1="576.75" y1="341.22" x2="582.29" y2="338.93"/>
      <line class="cls-5" x1="593.35" y1="334.37" x2="786.78" y2="254.44"/>
      <line class="cls-9" x1="792.31" y1="252.15" x2="797.85" y2="249.86"/>
    </g>
  </g>
  <g id="_レイヤー_2-2" data-name="レイヤー 2">
    <g class="cls-18">
      <path class="cls-17" d="M463.54,636.93c-.55-1.27-1.5-2.36-2.71-3.3-1.82-1.41-4.24-2.51-7.08-3.29-2.83-.77-6.08-1.2-9.54-1.2-5.27,0-10.05,1-13.63,2.69-1.79.85-3.29,1.87-4.39,3.1-.55.61-1,1.28-1.31,2.01-.31.72-.49,1.5-.49,2.3v28.32c0,.8.17,1.58.49,2.3.55,1.27,1.5,2.36,2.71,3.3,1.82,1.41,4.24,2.51,7.08,3.29,2.83.77,6.08,1.2,9.54,1.2,5.27,0,10.05-1,13.63-2.69,1.79-.85,3.29-1.87,4.39-3.1.55-.61,1-1.28,1.31-2.01.31-.72.49-1.5.49-2.3v-28.32c0-.8-.17-1.58-.49-2.3ZM461.29,667.55c0,.41-.08.8-.26,1.22-.31.72-.93,1.49-1.88,2.23-1.42,1.11-3.54,2.11-6.11,2.81-2.57.7-5.6,1.11-8.82,1.11-4.92,0-9.36-.96-12.46-2.43-1.55-.73-2.75-1.59-3.52-2.45-.39-.43-.66-.86-.84-1.27-.18-.41-.26-.81-.26-1.22v-4.68c1.58,1.45,3.8,2.6,6.46,3.45,3.06.98,6.71,1.54,10.63,1.54,5.23,0,9.96-.99,13.48-2.66,1.41-.67,2.62-1.46,3.6-2.35v4.69h0ZM461.29,659.57c-.19.42-.47.84-.85,1.26-1.21,1.36-3.4,2.65-6.23,3.55-2.83.9-6.28,1.44-10,1.44-4.96,0-9.45-.96-12.61-2.46-1.58-.75-2.82-1.62-3.63-2.53-.38-.42-.65-.84-.85-1.26v-6.14c1.58,1.44,3.8,2.6,6.46,3.45,3.06.98,6.71,1.54,10.63,1.54,5.23,0,9.96-.99,13.48-2.66,1.41-.67,2.62-1.46,3.6-2.35v6.15h0ZM461.29,650.13c-.19.42-.47.84-.85,1.26-1.21,1.36-3.4,2.65-6.23,3.55-2.83.9-6.28,1.44-10,1.44-4.96,0-9.45-.96-12.61-2.46-1.58-.75-2.82-1.62-3.63-2.53-.38-.42-.65-.84-.85-1.26v-6.14c1.58,1.45,3.8,2.6,6.46,3.45,3.06.98,6.71,1.54,10.63,1.54,5.23,0,9.96-.99,13.48-2.66,1.41-.67,2.62-1.46,3.6-2.35v6.15h0ZM461.29,640.69c-.19.42-.47.84-.85,1.26-1.21,1.36-3.4,2.65-6.23,3.55-2.83.9-6.28,1.44-10,1.44-4.96,0-9.45-.96-12.61-2.46-1.58-.75-2.82-1.62-3.63-2.53-.38-.42-.65-.84-.85-1.26v-1.46c0-.41.08-.8.26-1.22.31-.72.93-1.49,1.88-2.23,1.42-1.11,3.54-2.11,6.11-2.81,2.57-.7,5.6-1.11,8.82-1.11,4.92,0,9.36.96,12.46,2.43,1.55.73,2.75,1.59,3.52,2.45.39.43.66.86.84,1.27.18.41.26.81.26,1.22v1.46Z"/>
    </g>
    <g class="cls-18">
      <path class="cls-17" d="M139.16,636.93c-.55-1.27-1.5-2.36-2.71-3.3-1.82-1.41-4.24-2.51-7.08-3.29-2.83-.77-6.08-1.2-9.54-1.2-5.27,0-10.05,1-13.63,2.69-1.79.85-3.29,1.87-4.39,3.1-.55.61-1,1.28-1.31,2.01-.31.72-.49,1.5-.49,2.3v28.32c0,.8.17,1.58.49,2.3.55,1.27,1.5,2.36,2.71,3.3,1.82,1.41,4.24,2.51,7.08,3.29,2.83.77,6.08,1.2,9.54,1.2,5.27,0,10.05-1,13.63-2.69,1.79-.85,3.29-1.87,4.39-3.1.55-.61,1-1.28,1.31-2.01.31-.72.49-1.5.49-2.3v-28.32c0-.8-.17-1.58-.49-2.3ZM136.92,667.55c0,.41-.08.8-.26,1.22-.31.72-.93,1.49-1.88,2.23-1.42,1.11-3.54,2.11-6.11,2.81-2.57.7-5.6,1.11-8.82,1.11-4.92,0-9.36-.96-12.46-2.43-1.55-.73-2.75-1.59-3.52-2.45-.39-.43-.66-.86-.84-1.27-.18-.41-.26-.81-.26-1.22v-4.68c1.58,1.45,3.8,2.6,6.46,3.45,3.06.98,6.71,1.54,10.63,1.54,5.23,0,9.96-.99,13.48-2.66,1.41-.67,2.62-1.46,3.6-2.35v4.69h0ZM136.92,659.57c-.19.42-.47.84-.85,1.26-1.21,1.36-3.4,2.65-6.23,3.55-2.83.9-6.28,1.44-10,1.44-4.96,0-9.45-.96-12.61-2.46-1.58-.75-2.82-1.62-3.63-2.53-.38-.42-.65-.84-.85-1.26v-6.14c1.58,1.44,3.8,2.6,6.46,3.45,3.06.98,6.71,1.54,10.63,1.54,5.23,0,9.96-.99,13.48-2.66,1.41-.67,2.62-1.46,3.6-2.35v6.15h0ZM136.92,650.13c-.19.42-.47.84-.85,1.26-1.21,1.36-3.4,2.65-6.23,3.55-2.83.9-6.28,1.44-10,1.44-4.96,0-9.45-.96-12.61-2.46-1.58-.75-2.82-1.62-3.63-2.53-.38-.42-.65-.84-.85-1.26v-6.14c1.58,1.45,3.8,2.6,6.46,3.45,3.06.98,6.71,1.54,10.63,1.54,5.23,0,9.96-.99,13.48-2.66,1.41-.67,2.62-1.46,3.6-2.35v6.15h0ZM136.92,640.69c-.19.42-.47.84-.85,1.26-1.21,1.36-3.4,2.65-6.23,3.55-2.83.9-6.28,1.44-10,1.44-4.96,0-9.45-.96-12.61-2.46-1.58-.75-2.82-1.62-3.63-2.53-.38-.42-.65-.84-.85-1.26v-1.46c0-.41.08-.8.26-1.22.31-.72.93-1.49,1.88-2.23,1.42-1.11,3.54-2.11,6.11-2.81,2.57-.7,5.6-1.11,8.82-1.11,4.92,0,9.36.96,12.46,2.43,1.55.73,2.75,1.59,3.52,2.45.39.43.66.86.84,1.27.18.41.26.81.26,1.22v1.46Z"/>
    </g>
    <g class="cls-18">
      <path class="cls-17" d="M787.91,636.93c-.55-1.27-1.5-2.36-2.71-3.3-1.82-1.41-4.24-2.51-7.08-3.29-2.83-.77-6.08-1.2-9.54-1.2-5.27,0-10.05,1-13.63,2.69-1.79.85-3.29,1.87-4.39,3.1-.55.61-1,1.28-1.31,2.01-.31.72-.49,1.5-.49,2.3v28.32c0,.8.17,1.58.49,2.3.55,1.27,1.5,2.36,2.71,3.3,1.82,1.41,4.24,2.51,7.08,3.29,2.83.77,6.08,1.2,9.54,1.2,5.27,0,10.05-1,13.63-2.69,1.79-.85,3.29-1.87,4.39-3.1.55-.61,1-1.28,1.31-2.01.31-.72.49-1.5.49-2.3v-28.32c0-.8-.17-1.58-.49-2.3ZM785.67,667.55c0,.41-.08.8-.26,1.22-.31.72-.93,1.49-1.88,2.23-1.42,1.11-3.54,2.11-6.11,2.81-2.57.7-5.6,1.11-8.82,1.11-4.92,0-9.36-.96-12.46-2.43-1.55-.73-2.75-1.59-3.52-2.45-.39-.43-.66-.86-.84-1.27-.18-.41-.26-.81-.26-1.22v-4.68c1.58,1.45,3.8,2.6,6.46,3.45,3.06.98,6.71,1.54,10.63,1.54,5.23,0,9.96-.99,13.48-2.66,1.41-.67,2.62-1.46,3.6-2.35v4.69h0ZM785.67,659.57c-.19.42-.47.84-.85,1.26-1.21,1.36-3.4,2.65-6.23,3.55-2.83.9-6.28,1.44-10,1.44-4.96,0-9.45-.96-12.61-2.46-1.58-.75-2.82-1.62-3.63-2.53-.38-.42-.65-.84-.85-1.26v-6.14c1.58,1.44,3.8,2.6,6.46,3.45,3.06.98,6.71,1.54,10.63,1.54,5.23,0,9.96-.99,13.48-2.66,1.41-.67,2.62-1.46,3.6-2.35v6.15h0ZM785.67,650.13c-.19.42-.47.84-.85,1.26-1.21,1.36-3.4,2.65-6.23,3.55-2.83.9-6.28,1.44-10,1.44-4.96,0-9.45-.96-12.61-2.46-1.58-.75-2.82-1.62-3.63-2.53-.38-.42-.65-.84-.85-1.26v-6.14c1.58,1.45,3.8,2.6,6.46,3.45,3.06.98,6.71,1.54,10.63,1.54,5.23,0,9.96-.99,13.48-2.66,1.41-.67,2.62-1.46,3.6-2.35v6.15h0ZM785.67,640.69c-.19.42-.47.84-.85,1.26-1.21,1.36-3.4,2.65-6.23,3.55-2.83.9-6.28,1.44-10,1.44-4.96,0-9.45-.96-12.61-2.46-1.58-.75-2.82-1.62-3.63-2.53-.38-.42-.65-.84-.85-1.26v-1.46c0-.41.08-.8.26-1.22.31-.72.93-1.49,1.88-2.23,1.42-1.11,3.54-2.11,6.11-2.81,2.57-.7,5.6-1.11,8.82-1.11,4.92,0,9.36.96,12.46,2.43,1.55.73,2.75,1.59,3.52,2.45.39.43.66.86.84,1.27.18.41.26.81.26,1.22v1.46Z"/>
    </g>
    <g class="cls-18">
      <path class="cls-17" d="M312.11,604.78c-.55-1.27-1.5-2.36-2.71-3.3-1.82-1.41-4.24-2.51-7.08-3.29-2.83-.77-6.08-1.2-9.54-1.2-5.27,0-10.05,1-13.63,2.69-1.79.85-3.29,1.87-4.39,3.1-.55.61-1,1.28-1.31,2.01-.31.72-.49,1.5-.49,2.3v28.32c0,.8.17,1.58.49,2.3.55,1.27,1.5,2.36,2.71,3.3,1.82,1.41,4.24,2.51,7.08,3.29,2.83.77,6.08,1.2,9.54,1.2,5.27,0,10.05-1,13.63-2.69,1.79-.85,3.29-1.87,4.39-3.1.55-.61,1-1.28,1.31-2.01.31-.72.49-1.5.49-2.3v-28.32c0-.8-.17-1.58-.49-2.3ZM309.86,635.4c0,.41-.08.8-.26,1.22-.31.72-.93,1.49-1.88,2.23-1.42,1.11-3.54,2.11-6.11,2.81-2.57.7-5.6,1.11-8.82,1.11-4.92,0-9.36-.96-12.46-2.43-1.55-.73-2.75-1.59-3.52-2.45-.39-.43-.66-.86-.84-1.27-.18-.41-.26-.81-.26-1.22v-4.68c1.58,1.45,3.8,2.6,6.46,3.45,3.06.98,6.71,1.54,10.63,1.54,5.23,0,9.96-.99,13.48-2.66,1.41-.67,2.62-1.46,3.6-2.35v4.69h0ZM309.86,627.42c-.19.42-.47.84-.85,1.26-1.21,1.36-3.4,2.65-6.23,3.55-2.83.9-6.28,1.44-10,1.44-4.96,0-9.45-.96-12.61-2.46-1.58-.75-2.82-1.62-3.63-2.53-.38-.42-.65-.84-.85-1.26v-6.14c1.58,1.44,3.8,2.6,6.46,3.45,3.06.98,6.71,1.54,10.63,1.54,5.23,0,9.96-.99,13.48-2.66,1.41-.67,2.62-1.46,3.6-2.35v6.15h0ZM309.86,617.98c-.19.42-.47.84-.85,1.26-1.21,1.36-3.4,2.65-6.23,3.55-2.83.9-6.28,1.44-10,1.44-4.96,0-9.45-.96-12.61-2.46-1.58-.75-2.82-1.62-3.63-2.53-.38-.42-.65-.84-.85-1.26v-6.14c1.58,1.45,3.8,2.6,6.46,3.45,3.06.98,6.71,1.54,10.63,1.54,5.23,0,9.96-.99,13.48-2.66,1.41-.67,2.62-1.46,3.6-2.35v6.15h0ZM309.86,608.54c-.19.42-.47.84-.85,1.26-1.21,1.36-3.4,2.65-6.23,3.55-2.83.9-6.28,1.44-10,1.44-4.96,0-9.45-.96-12.61-2.46-1.58-.75-2.82-1.62-3.63-2.53-.38-.42-.65-.84-.85-1.26v-1.46c0-.41.08-.8.26-1.22.31-.72.93-1.49,1.88-2.23,1.42-1.11,3.54-2.11,6.11-2.81,2.57-.7,5.6-1.11,8.82-1.11,4.92,0,9.36.96,12.46,2.43,1.55.73,2.75,1.59,3.52,2.45.39.43.66.86.84,1.27.18.41.26.81.26,1.22v1.46Z"/>
    </g>
    <g class="cls-18">
      <path class="cls-17" d="M39.14,518.83c-.55-1.27-1.5-2.36-2.71-3.3-1.82-1.41-4.24-2.51-7.08-3.29-2.83-.77-6.08-1.2-9.54-1.2-5.27,0-10.05,1-13.63,2.69-1.79.85-3.29,1.87-4.39,3.1-.55.61-1,1.28-1.31,2.01-.31.72-.49,1.5-.49,2.3v28.32c0,.8.17,1.58.49,2.3.55,1.27,1.5,2.36,2.71,3.3,1.82,1.41,4.24,2.51,7.08,3.29,2.83.77,6.08,1.2,9.54,1.2,5.27,0,10.05-1,13.63-2.69,1.79-.85,3.29-1.87,4.39-3.1.55-.61,1-1.28,1.31-2.01.31-.72.49-1.5.49-2.3v-28.32c0-.8-.17-1.58-.49-2.3ZM36.9,549.45c0,.41-.08.8-.26,1.22-.31.72-.93,1.49-1.88,2.23-1.42,1.11-3.54,2.11-6.11,2.81-2.57.7-5.6,1.11-8.82,1.11-4.92,0-9.36-.96-12.46-2.43-1.55-.73-2.75-1.59-3.52-2.45-.39-.43-.66-.86-.84-1.27-.18-.41-.26-.81-.26-1.22v-4.68c1.58,1.45,3.8,2.6,6.46,3.45,3.06.98,6.71,1.54,10.63,1.54,5.23,0,9.96-.99,13.48-2.66,1.41-.67,2.62-1.46,3.6-2.35v4.69h0ZM36.9,541.47c-.19.42-.47.84-.85,1.26-1.21,1.36-3.4,2.65-6.23,3.55-2.83.9-6.28,1.44-10,1.44-4.96,0-9.45-.96-12.61-2.46-1.58-.75-2.82-1.62-3.63-2.53-.38-.42-.65-.84-.85-1.26v-6.14c1.58,1.44,3.8,2.6,6.46,3.45,3.06.98,6.71,1.54,10.63,1.54,5.23,0,9.96-.99,13.48-2.66,1.41-.67,2.62-1.46,3.6-2.35v6.15h0ZM36.9,532.03c-.19.42-.47.84-.85,1.26-1.21,1.36-3.4,2.65-6.23,3.55-2.83.9-6.28,1.44-10,1.44-4.96,0-9.45-.96-12.61-2.46-1.58-.75-2.82-1.62-3.63-2.53-.38-.42-.65-.84-.85-1.26v-6.14c1.58,1.45,3.8,2.6,6.46,3.45,3.06.98,6.71,1.54,10.63,1.54,5.23,0,9.96-.99,13.48-2.66,1.41-.67,2.62-1.46,3.6-2.35v6.15h0ZM36.9,522.59c-.19.42-.47.84-.85,1.26-1.21,1.36-3.4,2.65-6.23,3.55-2.83.9-6.28,1.44-10,1.44-4.96,0-9.45-.96-12.61-2.46-1.58-.75-2.82-1.62-3.63-2.53-.38-.42-.65-.84-.85-1.26v-1.46c0-.41.08-.8.26-1.22.31-.72.93-1.49,1.88-2.23,1.42-1.11,3.54-2.11,6.11-2.81,2.57-.7,5.6-1.11,8.82-1.11,4.92,0,9.36.96,12.46,2.43,1.55.73,2.75,1.59,3.52,2.45.39.43.66.86.84,1.27.18.41.26.81.26,1.22v1.46Z"/>
    </g>
    <g class="cls-18">
      <path class="cls-17" d="M602.63,585.2c-.55-1.27-1.5-2.36-2.71-3.3-1.82-1.41-4.24-2.51-7.08-3.29-2.83-.77-6.08-1.2-9.54-1.2-5.27,0-10.05,1-13.63,2.69-1.79.85-3.29,1.87-4.39,3.1-.55.61-1,1.28-1.31,2.01-.31.72-.49,1.5-.49,2.3v28.32c0,.8.17,1.58.49,2.3.55,1.27,1.5,2.36,2.71,3.3,1.82,1.41,4.24,2.51,7.08,3.29,2.83.77,6.08,1.2,9.54,1.2,5.27,0,10.05-1,13.63-2.69,1.79-.85,3.29-1.87,4.39-3.1.55-.61,1-1.28,1.31-2.01.31-.72.49-1.5.49-2.3v-28.32c0-.8-.17-1.58-.49-2.3ZM600.39,615.83c0,.41-.08.8-.26,1.22-.31.72-.93,1.49-1.88,2.23-1.42,1.11-3.54,2.11-6.11,2.81-2.57.7-5.6,1.11-8.82,1.11-4.92,0-9.36-.96-12.46-2.43-1.55-.73-2.75-1.59-3.52-2.45-.39-.43-.66-.86-.84-1.27-.18-.41-.26-.81-.26-1.22v-4.68c1.58,1.45,3.8,2.6,6.46,3.45,3.06.98,6.71,1.54,10.63,1.54,5.23,0,9.96-.99,13.48-2.66,1.41-.67,2.62-1.46,3.6-2.35v4.69h0ZM600.39,607.84c-.19.42-.47.84-.85,1.26-1.21,1.36-3.4,2.65-6.23,3.55-2.83.9-6.28,1.44-10,1.44-4.96,0-9.45-.96-12.61-2.46-1.58-.75-2.82-1.62-3.63-2.53-.38-.42-.65-.84-.85-1.26v-6.14c1.58,1.44,3.8,2.6,6.46,3.45,3.06.98,6.71,1.54,10.63,1.54,5.23,0,9.96-.99,13.48-2.66,1.41-.67,2.62-1.46,3.6-2.35v6.15h0ZM600.39,598.4c-.19.42-.47.84-.85,1.26-1.21,1.36-3.4,2.65-6.23,3.55-2.83.9-6.28,1.44-10,1.44-4.96,0-9.45-.96-12.61-2.46-1.58-.75-2.82-1.62-3.63-2.53-.38-.42-.65-.84-.85-1.26v-6.14c1.58,1.45,3.8,2.6,6.46,3.45,3.06.98,6.71,1.54,10.63,1.54,5.23,0,9.96-.99,13.48-2.66,1.41-.67,2.62-1.46,3.6-2.35v6.15h0ZM600.39,588.96c-.19.42-.47.84-.85,1.26-1.21,1.36-3.4,2.65-6.23,3.55-2.83.9-6.28,1.44-10,1.44-4.96,0-9.45-.96-12.61-2.46-1.58-.75-2.82-1.62-3.63-2.53-.38-.42-.65-.84-.85-1.26v-1.46c0-.41.08-.8.26-1.22.31-.72.93-1.49,1.88-2.23,1.42-1.11,3.54-2.11,6.11-2.81,2.57-.7,5.6-1.11,8.82-1.11,4.92,0,9.36.96,12.46,2.43,1.55.73,2.75,1.59,3.52,2.45.39.43.66.86.84,1.27.18.41.26.81.26,1.22v1.46Z"/>
    </g>
    <g class="cls-18">
      <path class="cls-17" d="M844.91,515.62c-.55-1.27-1.5-2.36-2.71-3.3-1.82-1.41-4.24-2.51-7.08-3.29-2.83-.77-6.08-1.2-9.54-1.2-5.27,0-10.05,1-13.63,2.69-1.79.85-3.29,1.87-4.39,3.1-.55.61-1,1.28-1.31,2.01-.31.72-.49,1.5-.49,2.3v28.32c0,.8.17,1.58.49,2.3.55,1.27,1.5,2.36,2.71,3.3,1.82,1.41,4.24,2.51,7.08,3.29,2.83.77,6.08,1.2,9.54,1.2,5.27,0,10.05-1,13.63-2.69,1.79-.85,3.29-1.87,4.39-3.1.55-.61,1-1.28,1.31-2.01.31-.72.49-1.5.49-2.3v-28.32c0-.8-.17-1.58-.49-2.3ZM842.67,546.24c0,.41-.08.8-.26,1.22-.31.72-.93,1.49-1.88,2.23-1.42,1.11-3.54,2.11-6.11,2.81-2.57.7-5.6,1.11-8.82,1.11-4.92,0-9.36-.96-12.46-2.43-1.55-.73-2.75-1.59-3.52-2.45-.39-.43-.66-.86-.84-1.27-.18-.41-.26-.81-.26-1.22v-4.68c1.58,1.45,3.8,2.6,6.46,3.45,3.06.98,6.71,1.54,10.63,1.54,5.23,0,9.96-.99,13.48-2.66,1.41-.67,2.62-1.46,3.6-2.35v4.69h0ZM842.67,538.26c-.19.42-.47.84-.85,1.26-1.21,1.36-3.4,2.65-6.23,3.55-2.83.9-6.28,1.44-10,1.44-4.96,0-9.45-.96-12.61-2.46-1.58-.75-2.82-1.62-3.63-2.53-.38-.42-.65-.84-.85-1.26v-6.14c1.58,1.44,3.8,2.6,6.46,3.45,3.06.98,6.71,1.54,10.63,1.54,5.23,0,9.96-.99,13.48-2.66,1.41-.67,2.62-1.46,3.6-2.35v6.15h0ZM842.67,528.82c-.19.42-.47.84-.85,1.26-1.21,1.36-3.4,2.65-6.23,3.55-2.83.9-6.28,1.44-10,1.44-4.96,0-9.45-.96-12.61-2.46-1.58-.75-2.82-1.62-3.63-2.53-.38-.42-.65-.84-.85-1.26v-6.14c1.58,1.45,3.8,2.6,6.46,3.45,3.06.98,6.71,1.54,10.63,1.54,5.23,0,9.96-.99,13.48-2.66,1.41-.67,2.62-1.46,3.6-2.35v6.15h0ZM842.67,519.38c-.19.42-.47.84-.85,1.26-1.21,1.36-3.4,2.65-6.23,3.55-2.83.9-6.28,1.44-10,1.44-4.96,0-9.45-.96-12.61-2.46-1.58-.75-2.82-1.62-3.63-2.53-.38-.42-.65-.84-.85-1.26v-1.46c0-.41.08-.8.26-1.22.31-.72.93-1.49,1.88-2.23,1.42-1.11,3.54-2.11,6.11-2.81,2.57-.7,5.6-1.11,8.82-1.11,4.92,0,9.36.96,12.46,2.43,1.55.73,2.75,1.59,3.52,2.45.39.43.66.86.84,1.27.18.41.26.81.26,1.22v1.46Z"/>
    </g>
  </g>
</svg>